<svg xmlns="http://www.w3.org/2000/svg" viewBox="0 0 1200 820" role="img" aria-labelledby="title desc">
  <title id="title">UI-концепт SaaS-дашборда</title>
  <desc id="desc">Сдержанный интерфейс дашборда с сайдбаром, графиками, метриками и спокойной сеткой.</desc>
  <rect width="1200" height="820" fill="#ede8de"/>
  <rect x="80" y="70" width="1040" height="680" rx="10" fill="#fbf8f1" stroke="#111" stroke-width="2"/>
  <rect x="80" y="70" width="230" height="680" fill="#171717"/>
  <text x="122" y="136" fill="#fbf8f1" font-family="Arial, Helvetica, sans-serif" font-size="30" font-weight="800">FLOW</text>
  <rect x="124" y="204" width="134" height="14" fill="#fbf8f1" opacity=".72"/>
  <rect x="124" y="250" width="98" height="14" fill="#fbf8f1" opacity=".42"/>
  <rect x="124" y="296" width="124" height="14" fill="#fbf8f1" opacity=".42"/>
  <text x="366" y="150" fill="#111" font-family="Arial, Helvetica, sans-serif" font-size="62" font-weight="800" letter-spacing="-4">Dashboard</text>
  <rect x="366" y="210" width="268" height="150" fill="#f3eee5" stroke="#111"/>
  <rect x="670" y="210" width="348" height="150" fill="#f3eee5" stroke="#111"/>
  <polyline points="710,314 762,278 816,292 870,244 936,282 990,238" fill="none" stroke="#d4512a" stroke-width="8"/>
  <rect x="366" y="410" width="652" height="230" fill="#111"/>
  <rect x="414" y="552" width="80" height="50" fill="#d4512a"/>
  <rect x="530" y="502" width="80" height="100" fill="#d4512a"/>
  <rect x="646" y="470" width="80" height="132" fill="#d4512a"/>
  <rect x="762" y="520" width="80" height="82" fill="#d4512a"/>
  <rect x="878" y="438" width="80" height="164" fill="#d4512a"/>
</svg>
