<svg width="192" height="122" viewBox="0 0 192 122" fill="none" xmlns="http://www.w3.org/2000/svg">
<path fill-rule="evenodd" clip-rule="evenodd" d="M143.849 0C147.773 11.5102 151.601 23.067 155.333 34.6705C167.556 34.7041 179.778 34.8046 192 34.972C182.122 42.176 172.25 49.378 162.384 56.5783C166.185 68.0221 169.946 79.4785 173.666 90.9473C173.599 91.0478 173.532 91.1483 173.465 91.2488C163.573 84.1539 153.734 76.9852 143.95 69.743C135.958 75.5717 127.966 81.4003 119.975 87.229C119.909 87.7731 119.976 88.3091 120.176 88.8369C122.106 94.6272 124.02 100.422 125.918 106.222C125.851 106.323 125.784 106.423 125.717 106.524C115.896 99.3307 106.058 92.1621 96.2015 85.0181C87.9213 90.9407 79.6945 96.9367 71.5215 103.007C73.7163 109.332 75.731 115.663 77.5656 122C67.75 114.754 57.878 107.585 47.9496 100.494C38.129 107.687 28.2907 114.856 18.4344 122C22.0135 110.383 25.7407 98.7925 29.616 87.229C19.7516 80.0294 9.87964 72.8272 0 65.6227C12.1555 65.5902 24.3109 65.5902 36.4659 65.6227C40.3639 54.0237 44.2253 42.3997 48.0504 30.7512C50.2017 37.1557 52.2498 43.5874 54.1952 50.0461C64.4038 50.1131 74.6116 50.0461 84.8185 49.8451C88.5944 38.31 92.3887 26.7867 96.2015 15.2751C98.3781 21.6891 100.494 28.1207 102.548 34.57C112.554 34.8379 122.56 34.8379 132.567 34.57C136.287 23.0329 140.048 11.5096 143.849 0ZM104.764 41.8056C104.844 41.5996 104.978 41.566 105.167 41.7051C108.871 44.5296 112.632 47.2765 116.449 49.9456C113.428 50.0461 110.406 50.0797 107.383 50.0461C106.625 47.2431 105.752 44.4964 104.764 41.8056ZM56.4113 56.4778C60.6236 59.3374 64.7874 62.2853 68.9024 65.3213C69.1081 65.4221 69.1418 65.556 69.0031 65.7232C65.85 65.7817 62.6601 65.7148 59.4334 65.5222C58.3329 62.5382 57.3256 59.5233 56.4113 56.4778ZM122.09 66.3262C120.641 71.0987 119.13 75.8555 117.557 80.5964C116.537 77.6965 115.563 74.7822 114.636 71.8534C117.027 69.9054 119.512 68.0631 122.09 66.3262ZM74.1406 81.4003C74.3171 81.374 74.4515 81.4409 74.5435 81.6013C72.9421 86.5955 71.2632 91.5533 69.5068 96.4745C68.3123 93.3802 67.3386 90.2314 66.5855 87.028C69.1408 85.1795 71.6591 83.3037 74.1406 81.4003Z" fill="white"/>
</svg>
